<svg width="337" height="74" viewBox="0 0 337 74" fill="none" xmlns="http://www.w3.org/2000/svg">
<path fill-rule="evenodd" clip-rule="evenodd" d="M40.7454 0.210517C25.2114 -1.45383 10.371 6.86792 3.57488 21.0149C-3.08253 35.1619 -0.30861 51.9441 10.7871 62.9011C21.8827 73.8581 38.665 76.9094 52.6733 70.1133C66.6816 63.4559 75.0033 48.6154 73.4777 33.0815C71.6746 15.7445 58.0824 2.01356 40.7454 0.210517ZM39.4971 56.3824C31.1754 57.492 22.9923 53.1924 19.2475 45.5641C15.5027 38.0745 17.0284 28.9206 22.9923 22.9567C28.9562 16.9927 37.9715 15.4671 45.5998 19.2119C53.0893 22.9567 57.5276 31.1397 56.418 39.4615C55.1698 48.1993 48.3737 55.1341 39.4971 56.3824ZM93.1725 1.73618C90.5373 1.73618 88.1794 2.98444 86.5151 4.92618C84.8507 7.00662 84.2959 9.50315 84.712 12.1384C85.5442 16.1606 89.289 18.9345 93.4499 18.9345H117.444L80.2738 68.3102C79.0255 69.8359 80.1351 72.1937 82.2155 72.1937H140.607C144.629 72.1937 148.512 69.4198 149.344 65.3976C149.899 62.9011 149.206 60.2659 147.541 58.1854C145.877 56.2437 143.519 54.9954 140.884 54.9954H111.758L148.928 5.61966C150.177 3.95531 149.067 1.59748 146.987 1.59748C146.987 1.73617 93.1725 1.73618 93.1725 1.73618ZM326.598 1.87487C322.576 2.84574 319.802 6.45184 319.94 10.474V39.1841L273.616 2.29096C272.09 1.04269 269.594 2.15226 269.594 4.2327V63.3172C269.455 67.3394 272.229 71.0842 276.251 71.9163C278.748 72.4711 281.383 71.7776 283.463 70.252C285.544 68.5876 286.653 66.2298 286.653 63.5946V34.6071L332.978 71.5003C334.503 72.7485 337 71.6389 337 69.5585V10.1966C337 7.56141 335.752 5.06488 333.81 3.53922C331.73 2.01357 329.094 1.32009 326.598 1.87487ZM205.794 17.1314C225.35 17.1314 240.052 27.5336 240.052 36.8263C240.052 46.1189 225.35 56.5211 205.794 56.5211C186.237 56.5211 171.397 46.1189 171.397 36.8263C171.536 27.5336 186.237 17.1314 205.794 17.1314ZM205.794 0.071823C177.361 0.071823 154.337 16.5766 154.337 36.965C154.337 57.3533 177.361 73.8581 205.794 73.8581C234.226 73.8581 257.25 57.3533 257.25 36.965C257.25 16.5766 234.088 0.071823 205.794 0.071823Z" fill="#0069FF"/>
</svg>
